<svg width="28" height="28" viewBox="0 0 28 28" fill="none" xmlns="http://www.w3.org/2000/svg">
<path d="M20.5621 13.1252L13.9996 8.75016L20.0765 4.70328C20.2203 4.60735 20.3892 4.55615 20.5621 4.55615C20.735 4.55615 20.9039 4.60735 21.0477 4.70328L26.0309 8.02172C26.1509 8.10159 26.2493 8.20989 26.3174 8.33697C26.3855 8.46405 26.4211 8.60599 26.4211 8.75016C26.4211 8.89433 26.3855 9.03626 26.3174 9.16335C26.2493 9.29043 26.1509 9.39872 26.0309 9.4786L20.5621 13.1252ZM7.92273 4.70328C7.77894 4.60735 7.60996 4.55615 7.4371 4.55615C7.26425 4.55615 7.09527 4.60735 6.95148 4.70328L1.96835 8.02172C1.84833 8.10159 1.74991 8.20989 1.68183 8.33697C1.61375 8.46405 1.57812 8.60599 1.57812 8.75016C1.57812 8.89433 1.61375 9.03626 1.68183 9.16335C1.74991 9.29043 1.84833 9.39872 1.96835 9.4786L7.4371 13.1252L13.9996 8.75016L7.92273 4.70328ZM26.0309 16.7717L20.5621 13.1252L13.9996 17.5002L20.0765 21.547C20.2203 21.643 20.3892 21.6942 20.5621 21.6942C20.735 21.6942 20.9039 21.643 21.0477 21.547L26.0309 18.2286C26.1509 18.1487 26.2493 18.0404 26.3174 17.9133C26.3855 17.7863 26.4211 17.6443 26.4211 17.5002C26.4211 17.356 26.3855 17.2141 26.3174 17.087C26.2493 16.9599 26.1509 16.8516 26.0309 16.7717ZM1.96835 16.7717C1.84833 16.8516 1.74991 16.9599 1.68183 17.087C1.61375 17.2141 1.57812 17.356 1.57812 17.5002C1.57812 17.6443 1.61375 17.7863 1.68183 17.9133C1.74991 18.0404 1.84833 18.1487 1.96835 18.2286L6.95148 21.547C7.09527 21.643 7.26425 21.6942 7.4371 21.6942C7.60996 21.6942 7.77894 21.643 7.92273 21.547L13.9996 17.5002L7.4371 13.1252L1.96835 16.7717ZM18.4413 22.5631L14.2446 19.7653C14.1727 19.7173 14.0882 19.6917 14.0018 19.6917C13.9154 19.6917 13.8309 19.7173 13.759 19.7653L9.56007 22.5631C9.50029 22.6031 9.45129 22.6572 9.4174 22.7206C9.38351 22.7841 9.36578 22.8549 9.36578 22.9268C9.36578 22.9987 9.38351 23.0695 9.4174 23.133C9.45129 23.1964 9.50029 23.2505 9.56007 23.2905L13.514 25.922C13.6578 26.018 13.8267 26.0692 13.9996 26.0692C14.1725 26.0692 14.3414 26.018 14.4852 25.922L18.4391 23.2861C18.498 23.246 18.5462 23.192 18.5795 23.129C18.6128 23.066 18.6302 22.9959 18.6302 22.9246C18.6302 22.8534 18.6128 22.7832 18.5795 22.7202C18.5462 22.6572 18.498 22.6033 18.4391 22.5631H18.4413Z" fill="#0061FE"/>
</svg>
