<svg width="28" height="28" viewBox="0 0 28 28" fill="none" xmlns="http://www.w3.org/2000/svg">
<g clip-path="url(#clip0_1430_876)">
<path d="M25.1663 14.0002C25.1663 7.83302 20.1668 2.8335 13.9997 2.8335C7.83253 2.8335 2.83301 7.83302 2.83301 14.0002C2.83301 19.5737 6.91652 24.1935 12.2549 25.0312V17.228H9.4196V14.0002H12.2549V11.54C12.2549 8.74136 13.922 7.19548 16.4727 7.19548C17.6944 7.19548 18.9723 7.41357 18.9723 7.41357V10.1616H17.5643C16.1771 10.1616 15.7445 11.0224 15.7445 11.9055V14.0002H18.8415L18.3464 17.228H15.7445V25.0312C21.0828 24.1935 25.1663 19.5738 25.1663 14.0002Z" fill="#1877F2"/>
<path d="M18.3467 17.2279L18.8418 14H15.7448V11.9054C15.7448 11.0222 16.1774 10.1615 17.5646 10.1615H18.9727V7.41341C18.9727 7.41341 17.6948 7.19531 16.473 7.19531C13.9224 7.19531 12.2552 8.7412 12.2552 11.5398V14H9.41992V17.2279H12.2552V25.031C12.8324 25.1215 13.4158 25.1668 14 25.1667C14.5842 25.1668 15.1676 25.1215 15.7448 25.031V17.2279H18.3467Z" fill="white"/>
</g>
<defs>
<clipPath id="clip0_1430_876">
<rect width="22.3333" height="22.3333" fill="white" transform="translate(2.83301 2.8335)"/>
</clipPath>
</defs>
</svg>
