<svg width="28" height="28" viewBox="0 0 28 28" fill="none" xmlns="http://www.w3.org/2000/svg">
<path fill-rule="evenodd" clip-rule="evenodd" d="M14.0001 2.69482C7.59613 2.69482 2.40918 7.88177 2.40918 14.2858C2.40918 19.4148 5.72709 23.7469 10.3345 25.2827C10.914 25.3841 11.1314 25.0364 11.1314 24.7321C11.1314 24.4568 11.1169 23.544 11.1169 22.5733C8.20465 23.1094 7.45124 21.8634 7.21942 21.2114C7.08902 20.8781 6.52397 19.8494 6.03135 19.5741C5.62567 19.3568 5.04612 18.8207 6.01686 18.8062C6.92965 18.7918 7.58164 19.6466 7.79897 19.9943C8.84216 21.7474 10.5084 21.2548 11.1748 20.9506C11.2763 20.1972 11.5805 19.69 11.9138 19.4003C9.33477 19.1105 6.63988 18.1108 6.63988 13.6772C6.63988 12.4167 7.08902 11.3735 7.82795 10.5622C7.71204 10.2724 7.30635 9.08433 7.94386 7.49058C7.94386 7.49058 8.9146 7.18632 11.1314 8.67865C12.0586 8.41785 13.0439 8.28746 14.0291 8.28746C15.0143 8.28746 15.9996 8.41785 16.9268 8.67865C19.1436 7.17183 20.1144 7.49058 20.1144 7.49058C20.7519 9.08433 20.3462 10.2724 20.2303 10.5622C20.9692 11.3735 21.4183 12.4022 21.4183 13.6772C21.4183 18.1253 18.7089 19.1105 16.13 19.4003C16.5501 19.7625 16.9124 20.458 16.9124 21.5446C16.9124 23.0949 16.8979 24.3409 16.8979 24.7321C16.8979 25.0364 17.1152 25.3986 17.6947 25.2827C22.2732 23.7469 25.5911 19.4003 25.5911 14.2858C25.5911 7.88177 20.4041 2.69482 14.0001 2.69482Z" fill="#D4D4D8"/>
</svg>
