<svg width="28" height="28" viewBox="0 0 28 28" fill="none" xmlns="http://www.w3.org/2000/svg">
<path d="M25.4394 11.7152H24.4997V11.6668H13.9997V16.3335H20.5931C19.6312 19.0501 17.0464 21.0002 13.9997 21.0002C10.1339 21.0002 6.99967 17.8659 6.99967 14.0002C6.99967 10.1344 10.1339 7.00016 13.9997 7.00016C15.7841 7.00016 17.4075 7.67333 18.6436 8.77291L21.9435 5.473C19.8598 3.53108 17.0727 2.3335 13.9997 2.3335C7.55676 2.3335 2.33301 7.55725 2.33301 14.0002C2.33301 20.4431 7.55676 25.6668 13.9997 25.6668C20.4426 25.6668 25.6663 20.4431 25.6663 14.0002C25.6663 13.2179 25.5858 12.4543 25.4394 11.7152Z" fill="#FFC107"/>
<path d="M3.67871 8.56991L7.51179 11.381C8.54896 8.81316 11.0608 7.00016 14.0002 7.00016C15.7846 7.00016 17.408 7.67333 18.6441 8.77291L21.944 5.473C19.8604 3.53108 17.0732 2.3335 14.0002 2.3335C9.51904 2.3335 5.63288 4.86341 3.67871 8.56991Z" fill="#FF3D00"/>
<path d="M13.9995 25.6666C17.013 25.6666 19.7512 24.5133 21.8214 22.6379L18.2106 19.5824C17.0001 20.5035 15.5206 21.0015 13.9995 20.9999C10.965 20.9999 8.38845 19.065 7.41778 16.3647L3.61328 19.296C5.54411 23.0742 9.46528 25.6666 13.9995 25.6666Z" fill="#4CAF50"/>
<path d="M25.4397 11.7149H24.5V11.6665H14V16.3332H20.5934C20.1333 17.6261 19.3045 18.7559 18.2093 19.5829L18.2111 19.5818L21.8219 22.6373C21.5664 22.8694 25.6667 19.8332 25.6667 13.9998C25.6667 13.2176 25.5862 12.454 25.4397 11.7149Z" fill="#1976D2"/>
</svg>
