<svg width="28" height="28" viewBox="0 0 28 28" fill="none" xmlns="http://www.w3.org/2000/svg">
<path d="M23.4885 23.1558L16.6416 12.3955L23.3977 4.96344C23.5505 4.7912 23.6293 4.56567 23.6169 4.33576C23.6045 4.10584 23.502 3.89007 23.3316 3.73522C23.1613 3.58037 22.9367 3.49892 22.7066 3.50853C22.4766 3.51814 22.2596 3.61804 22.1027 3.78656L15.6671 10.8653L11.2385 3.90578C11.1595 3.78148 11.0505 3.67912 10.9214 3.60819C10.7924 3.53726 10.6475 3.50005 10.5002 3.5H5.25022C5.09333 3.49992 4.93931 3.54203 4.80428 3.62191C4.66926 3.70179 4.55819 3.8165 4.48271 3.95404C4.40723 4.09158 4.37012 4.24688 4.37526 4.40368C4.38041 4.56048 4.42761 4.71302 4.51194 4.84531L11.3588 15.6045L4.60272 23.042C4.52382 23.1268 4.46253 23.2263 4.4224 23.335C4.38227 23.4436 4.36409 23.5591 4.36893 23.6748C4.37376 23.7904 4.40151 23.904 4.45056 24.0089C4.49961 24.1138 4.56899 24.2079 4.65468 24.2858C4.74037 24.3637 4.84067 24.4237 4.94976 24.4626C5.05884 24.5014 5.17455 24.5182 5.29017 24.512C5.40579 24.5057 5.51903 24.4766 5.62332 24.4263C5.72761 24.376 5.82088 24.3055 5.89772 24.2189L12.3333 17.1402L16.7619 24.0997C16.8416 24.223 16.9509 24.3243 17.0799 24.3942C17.2089 24.4642 17.3535 24.5005 17.5002 24.5H22.7502C22.9069 24.5 23.0608 24.4578 23.1956 24.378C23.3305 24.2982 23.4414 24.1836 23.5169 24.0462C23.5923 23.9089 23.6295 23.7538 23.6245 23.5971C23.6195 23.4405 23.5725 23.2881 23.4885 23.1558ZM17.9804 22.75L6.84381 5.25H10.0157L21.1566 22.75H17.9804Z" fill="#D4D4D8"/>
</svg>
